<!--?xml version="1.0" encoding="utf-8"?-->
<!-- Generator: Adobe Illustrator 18.0.0, SVG Export Plug-In . SVG Version: 6.00 Build 0)  -->

<svg version="1.1" id="_x31_0" xmlns="http://www.w3.org/2000/svg" xmlns:xlink="http://www.w3.org/1999/xlink" x="0px" y="0px" viewBox="0 0 512 512" style="width: 256px; height: 256px; opacity: 1;" xml:space="preserve">
<style type="text/css">
	.st0{fill:#374149;}
</style>
<g>
	<path class="st0" d="M504.526,470.68L360.239,325.975c6.928-8.77,13.106-18.152,18.512-28.022c0.171-0.313,0.308-0.64,0.48-0.957
		c2.404-4.442,4.679-8.965,6.752-13.606c0.913-2.041,1.654-4.152,2.494-6.221c1.23-3.021,2.518-6.01,3.602-9.106
		c0.769-2.202,1.362-4.465,2.057-6.694c0.972-3.118,2.002-6.206,2.822-9.39c0.344-1.334,0.566-2.705,0.882-4.051
		c3.509-14.839,5.511-30.259,5.534-46.16c0.039-27.058-5.293-52.861-14.925-76.446c-0.114-0.273-0.211-0.55-0.324-0.823
		c-1.109-2.678-2.283-5.316-3.501-7.93c-0.164-0.351-0.312-0.706-0.476-1.054c-1.273-2.697-2.619-5.354-4.009-7.985
		c-0.125-0.238-0.238-0.484-0.366-0.722C345.939,43.35,279.156,0.114,202.194,0c-16.372-0.023-32.254,2.018-47.502,5.69
		c-0.933,0.222-1.885,0.367-2.814,0.602c-3.376,0.866-6.658,1.947-9.964,2.982c-2.034,0.632-4.098,1.159-6.108,1.858
		c-3.33,1.159-6.554,2.529-9.797,3.856c-1.838,0.75-3.711,1.394-5.526,2.202C105.172,23.98,90.86,32.613,77.86,42.854
		c-12.743,9.894-24.288,21.322-34.299,34.041c-6.935,8.798-13.118,18.207-18.527,28.101c-0.054,0.098-0.098,0.199-0.148,0.297
		c-2.537,4.66-4.914,9.418-7.084,14.293c-0.808,1.811-1.456,3.68-2.209,5.51c-1.339,3.259-2.717,6.495-3.887,9.836
		c-0.691,1.982-1.218,4.016-1.846,6.018c-1.054,3.341-2.146,6.654-3.029,10.066c-0.297,1.155-0.484,2.338-0.761,3.501
		c-3.583,14.991-5.62,30.587-5.644,46.667c-0.16,111.291,89.97,201.605,201.184,201.765c16.786,0.023,33.058-2.084,48.646-5.937
		c0.511-0.129,1.034-0.202,1.542-0.331c3.766-0.964,7.435-2.15,11.112-3.322c1.654-0.527,3.341-0.952,4.98-1.522
		c3.356-1.162,6.611-2.545,9.882-3.879c1.846-0.754,3.728-1.405,5.55-2.213c3.848-1.71,7.579-3.634,11.302-5.574
		c1.14-0.597,2.314-1.101,3.446-1.718c9.804-5.358,19.132-11.494,27.871-18.359l144.365,144.786
		c4.668,4.684,10.87,7.111,17.075,7.119c6.127,0.008,12.333-2.4,17.094-7.068C513.921,495.514,513.944,480.203,504.526,470.68z
		 M353.007,201.695c-0.047,32.96-10.651,63.406-28.737,88.202c-9.454,13.204-20.99,24.71-34.221,34.202
		c-24.85,18.015-55.406,28.53-88.366,28.483c-83.331-0.121-151.007-67.997-150.886-151.324
		c0.047-32.964,10.651-63.492,28.734-88.287c9.449-13.122,21.071-24.71,34.224-34.12c24.846-18.015,55.406-28.526,88.366-28.479
		C285.448,50.492,353.128,118.364,353.007,201.695z" style="fill: rgb(75, 75, 75);"></path>
</g>
</svg>
